<svg width="14" height="14" viewBox="0 0 14 14" fill="none" xmlns="http://www.w3.org/2000/svg">
<path d="M10.2998 9.7165C9.87949 10.1368 9.10629 10.91 8.41396 11.6023C7.63291 12.3834 6.36694 12.3833 5.58589 11.6022C4.90697 10.9233 4.14595 10.1623 3.70015 9.7165C1.8777 7.89405 1.8777 4.93928 3.70015 3.11684C5.5226 1.29439 8.47736 1.29439 10.2998 3.11684C12.1223 4.93928 12.1223 7.89405 10.2998 9.7165Z" stroke="#FE8C00" stroke-width="1.5" stroke-linecap="round" stroke-linejoin="round"/>
<path d="M8.74998 6.41667C8.74998 7.38316 7.96648 8.16667 6.99998 8.16667C6.03348 8.16667 5.24998 7.38316 5.24998 6.41667C5.24998 5.45017 6.03348 4.66667 6.99998 4.66667C7.96648 4.66667 8.74998 5.45017 8.74998 6.41667Z" stroke="#FE8C00" stroke-width="1.5" stroke-linecap="round" stroke-linejoin="round"/>
</svg>
